<svg version="1.1" id="Layer_1" xmlns="http://www.w3.org/2000/svg" xmlns:xlink="http://www.w3.org/1999/xlink" x="0px" y="0px"
	 width="100%" viewBox="0 0 503 154" enable-background="new 0 0 503 154" xml:space="preserve">
<path fill="#000000" opacity="1.000000" stroke="none" 
	d="
M330.000000,155.000000 
	C220.000046,155.000000 110.500076,155.000000 1.000088,155.000000 
	C1.000059,103.666725 1.000059,52.333450 1.000029,1.000129 
	C168.666550,1.000086 336.333099,1.000086 503.999725,1.000043 
	C503.999817,52.333195 503.999817,103.666389 503.999908,154.999786 
	C446.166656,155.000000 388.333344,155.000000 330.000000,155.000000 
M86.992378,132.909851 
	C86.966476,140.089600 92.520836,146.223923 99.236450,145.090027 
	C102.302513,144.572357 105.588524,144.609314 108.670105,145.080002 
	C116.157204,146.223587 121.748772,139.167953 121.915382,132.378021 
	C122.171669,121.933777 121.878471,111.476036 122.158783,100.397545 
	C125.599625,97.936996 129.498734,95.921066 132.396790,92.933914 
	C141.706512,83.338020 146.211609,72.175972 144.202881,58.313099 
	C142.743713,48.242809 138.597916,40.231895 131.171982,33.602947 
	C120.673752,24.231438 108.447975,20.831511 94.848358,24.089392 
	C74.927597,28.861549 62.587753,46.004242 63.218044,64.794136 
	C63.764816,81.094345 72.114914,93.410576 86.970810,101.727394 
	C86.969177,102.449783 86.967545,103.172165 86.232544,104.377434 
	C86.155029,111.123810 85.984779,117.871063 86.048241,124.616119 
	C86.071747,127.115250 86.644081,129.609207 86.992378,132.909851 
M329.550751,92.005623 
	C332.149475,91.689682 334.995636,90.534912 337.300537,91.214928 
	C344.241119,93.262657 349.235626,92.144951 351.357330,84.081841 
	C352.087708,85.887848 352.433380,87.177452 353.088409,88.283928 
	C355.419006,92.220764 362.099518,94.942184 366.997894,93.937164 
	C370.798859,93.157310 374.343842,92.009918 373.348969,86.691681 
	C374.559540,94.228905 376.523071,95.693520 383.561890,94.459541 
	C384.201355,92.268707 384.826599,90.126572 385.451843,87.984436 
	C385.661346,88.022934 385.870819,88.061432 386.080292,88.099922 
	C386.080292,90.229218 386.080292,92.358513 386.080292,94.819351 
	C387.438416,94.905128 388.554016,95.033813 389.669800,95.035286 
	C393.194214,95.039925 396.901123,95.687843 400.201965,94.816360 
	C405.651215,93.377632 401.766174,88.278458 403.160828,85.122650 
	C403.256012,84.907295 403.643585,84.821175 404.011658,84.607277 
	C407.062103,90.476501 412.343170,91.251564 418.246613,91.037086 
	C426.331818,90.743332 427.798798,89.146255 426.446289,81.183693 
	C424.955505,81.061615 423.437897,80.937332 420.539825,80.700012 
	C424.192139,79.557762 426.501709,78.835464 428.895020,78.086967 
	C429.576233,83.276627 426.533600,89.308678 434.441925,92.218513 
	C440.861511,94.580582 445.414307,92.727829 446.120605,85.961197 
	C446.389618,83.383949 447.400299,79.626801 449.230774,78.703995 
	C454.876801,75.857643 454.355865,71.450485 453.605072,65.206627 
	C448.964447,65.140961 444.100342,65.118866 439.239044,64.990891 
	C433.808380,64.847916 429.469208,66.171486 429.176849,73.474823 
	C424.861725,66.388901 419.008362,63.642078 412.300018,65.077690 
	C405.248657,66.586708 403.994507,72.495461 402.592438,78.678276 
	C400.233826,71.042755 393.868713,72.087585 388.296021,71.868797 
	C387.659027,68.418884 387.100464,65.393814 386.445862,61.848644 
	C382.683105,62.249252 378.951233,62.502766 375.289703,63.152779 
	C374.519653,63.289478 373.451294,64.893890 373.469818,65.802628 
	C373.573914,70.909241 373.968445,76.009926 374.272125,81.254372 
	C371.538330,80.552475 369.300537,79.977928 366.838379,79.345764 
	C367.139709,78.470314 367.214417,77.459320 367.566284,77.351311 
	C372.069519,75.969093 371.956970,72.156654 370.473419,69.428612 
	C368.903381,66.541534 365.417694,66.094429 362.190460,67.899750 
	C358.775970,69.809822 355.335846,71.674042 352.030975,73.490128 
	C346.993683,58.450207 334.038147,59.587437 320.766663,63.668900 
	C319.545410,64.044479 317.828278,63.622211 316.602081,63.030331 
	C310.301331,59.988831 300.540985,59.527000 295.676910,67.065758 
	C292.741638,65.344971 289.809998,63.670910 286.935120,61.904427 
	C286.339020,61.538136 285.691040,60.902557 285.512329,60.266048 
	C283.933624,54.642567 277.672028,49.905399 272.442963,51.221138 
	C270.668610,51.667599 268.832947,54.091679 268.140747,56.013760 
	C267.399628,58.071709 267.973602,60.603275 267.973602,62.355995 
	C264.656616,61.998306 261.445465,61.652027 258.049774,61.285854 
	C258.485107,57.908997 258.322510,53.415028 253.674637,52.503151 
	C250.318008,51.844604 245.824371,52.446068 243.163727,54.344166 
	C241.340591,55.644768 241.795837,60.139065 241.393875,62.327526 
	C237.860901,61.966187 233.033936,60.459629 228.671860,61.317337 
	C224.489273,62.139751 220.789032,65.415169 216.782120,67.665764 
	C210.465149,58.374222 199.849701,59.469967 192.761230,63.796967 
	C190.515045,55.517548 183.235962,50.477184 175.056702,51.016487 
	C170.959442,51.286640 166.852081,51.527813 162.780762,52.034729 
	C157.958328,52.635159 156.417587,56.526356 159.177216,60.555191 
	C159.926910,61.649696 160.939499,62.944485 160.913773,64.127388 
	C160.758698,71.258293 162.573013,78.694878 157.427521,85.438820 
	C160.022797,87.432304 162.276108,90.634346 164.639114,90.717461 
	C173.716614,91.036697 183.265701,93.649345 191.394455,87.236458 
	C199.112274,94.120697 215.244629,94.009308 221.136780,87.147141 
	C226.374588,90.772125 231.779129,93.476227 238.477341,91.068863 
	C240.379318,90.385292 242.600601,90.384216 244.669952,90.417000 
	C248.465042,90.477135 252.302261,91.248856 256.034698,90.868401 
	C259.273132,90.538300 262.299713,89.671371 265.337738,91.612663 
	C266.071259,92.081383 267.583466,92.285255 268.187164,91.849091 
	C272.182312,88.962509 276.485443,90.887604 280.371735,91.423637 
	C287.368500,92.388664 292.994354,91.050407 296.440704,86.530411 
	C301.755035,88.462959 307.154419,92.463417 311.430023,91.496216 
	C317.597992,90.100945 322.959351,90.527412 329.550751,92.005623 
M64.573723,33.974941 
	C66.445381,33.163414 68.317032,32.351891 70.865349,31.246971 
	C68.564369,29.113993 67.389565,28.024967 65.923737,26.666164 
	C64.166092,28.886972 60.383732,30.062223 64.573723,33.974941 
M129.993637,109.432846 
	C131.643555,108.555733 133.293457,107.678612 134.943375,106.801498 
	C133.954590,105.206818 132.965820,103.612144 131.962799,101.994514 
	C130.360519,103.109154 129.190750,103.922920 127.769104,104.911896 
	C128.340164,106.270088 128.895920,107.591843 129.993637,109.432846 
M61.955505,96.399902 
	C63.666286,95.656532 65.377068,94.913170 67.152924,94.141525 
	C65.410706,91.310036 64.630096,87.444122 61.082294,90.766205 
	C60.289700,91.508362 61.258350,94.131439 61.955505,96.399902 
M127.428635,22.754698 
	C128.734833,21.119879 130.041046,19.485062 131.538544,17.610821 
	C128.984253,16.502964 127.272087,15.760352 125.616173,15.042140 
	C124.111076,18.005468 123.021255,20.654911 127.428635,22.754698 
M140.937134,102.545731 
	C145.184845,98.400055 138.828049,98.519775 138.752319,95.631882 
	C137.113937,97.447914 135.941437,98.747543 133.771255,101.153038 
	C136.647888,101.927010 138.508713,102.427673 140.937134,102.545731 
M53.117954,49.443275 
	C54.924133,49.910835 56.730312,50.378395 58.640991,50.873009 
	C59.160164,48.934101 59.604702,47.273918 60.079380,45.501171 
	C58.258430,44.946983 56.790840,44.500340 54.939243,43.936829 
	C54.219746,45.707966 53.622688,47.177711 53.117954,49.443275 
M86.663589,13.918789 
	C87.593254,19.208080 87.593254,19.208080 93.179344,17.332851 
	C92.698959,15.596196 92.210068,13.828753 91.706505,12.008286 
	C89.943169,12.536119 88.557816,12.950810 86.663589,13.918789 
M60.325161,87.145699 
	C63.318840,84.762184 61.057491,83.114189 59.141575,80.520157 
	C57.699463,82.072441 55.538948,83.343124 55.485756,84.696632 
	C55.400921,86.855080 56.776619,88.981400 60.325161,87.145699 
M58.997169,41.472122 
	C63.048386,43.143246 62.796452,39.622097 64.021286,37.729637 
	C62.438938,36.663242 61.142345,35.789425 58.337006,33.898811 
	C58.337006,37.064781 58.337006,39.068741 58.997169,41.472122 
M117.858719,18.368511 
	C119.330162,17.232014 120.801605,16.095518 123.048798,14.359863 
	C119.937553,13.220574 118.312599,12.625542 116.354546,11.908535 
	C116.246338,14.181516 112.170013,16.509523 117.858719,18.368511 
M138.043335,25.430756 
	C140.189453,20.869263 134.758224,22.708191 134.705719,20.003826 
	C134.173538,20.198746 133.641373,20.393665 133.109192,20.588585 
	C133.109192,22.574352 133.109192,24.560118 133.109192,26.545883 
	C134.595978,26.345686 136.082748,26.145489 138.043335,25.430756 
M143.510712,28.014965 
	C141.662949,28.461819 139.815186,28.908674 137.435608,29.484140 
	C139.190598,31.749865 140.131683,32.964832 141.271729,34.436657 
	C143.071243,33.198898 144.587509,32.155968 146.284393,30.988806 
	C145.340973,29.963352 144.677216,29.241884 143.510712,28.014965 
M73.281387,106.391403 
	C74.763138,107.461014 76.281654,109.388367 77.714897,109.326927 
	C78.847122,109.278389 79.874535,106.784958 80.902054,105.438194 
	C77.834663,102.731483 75.485382,101.989700 73.281387,106.391403 
M144.841278,96.276505 
	C146.071945,95.136551 148.302689,93.992996 148.298584,92.857475 
	C148.292480,91.159782 146.713852,89.467758 145.804153,87.773331 
	C145.059830,88.342247 144.315506,88.911163 143.571182,89.480080 
	C143.323990,91.610077 139.814407,93.818375 144.841278,96.276505 
M70.884453,103.373901 
	C71.615952,102.156364 72.347443,100.938828 72.991196,99.867332 
	C70.905113,96.501778 68.352783,95.779495 66.506401,99.253998 
	C64.635834,102.774017 68.727051,102.550217 70.884453,103.373901 
M98.620537,16.976379 
	C103.224968,16.800541 101.941765,13.865908 101.696472,11.319326 
	C99.595192,11.319326 97.884949,11.319326 95.239761,11.319326 
	C96.280029,13.585423 97.037018,15.234435 98.620537,16.976379 
M147.945206,82.314224 
	C147.370514,83.427544 146.795837,84.540863 146.151306,85.789505 
	C147.250961,86.460960 148.172394,87.104256 149.167465,87.599586 
	C149.724915,87.877060 150.404373,87.909439 150.972336,88.039330 
	C154.082413,83.253334 153.580139,82.178627 147.945206,82.314224 
M52.013813,75.257370 
	C52.534111,76.532639 53.054409,77.807907 53.640324,79.244011 
	C55.549839,78.589195 57.042526,78.077316 58.460526,77.591049 
	C58.175648,76.077690 57.915981,74.698265 57.502995,72.504372 
	C55.560123,73.185577 53.797184,73.803696 52.013813,75.257370 
M155.987228,76.283035 
	C154.815796,74.780739 153.644363,73.278435 152.472931,71.776138 
	C151.813293,72.070923 151.153671,72.365707 150.494034,72.660484 
	C150.698212,74.441154 150.902390,76.221817 151.106567,78.002487 
	C152.715927,77.699486 154.325302,77.396484 155.987228,76.283035 
M51.113792,58.343773 
	C52.847286,59.022018 54.580784,59.700264 56.744877,60.546986 
	C56.744877,57.777470 56.744877,56.064537 56.744877,54.410927 
	C53.483082,53.350536 51.506817,54.132755 51.113792,58.343773 
M150.850067,44.072563 
	C146.773438,45.230289 148.710251,47.610455 149.791229,50.568104 
	C151.607025,49.781437 153.235184,49.076054 154.863358,48.370674 
	C153.790222,46.919464 152.717072,45.468254 150.850067,44.072563 
M148.623199,41.073101 
	C153.624481,38.725746 149.059357,37.049110 148.464355,34.670784 
	C146.736664,35.687912 145.396759,36.476738 142.810989,37.999027 
	C144.985382,39.457493 146.495728,40.470562 148.623199,41.073101 
M74.403008,21.933903 
	C72.554550,22.346455 70.706100,22.759008 69.037506,23.131418 
	C70.487671,25.312958 71.537659,26.892502 72.766029,28.740391 
	C74.533440,26.884018 75.686096,25.673336 76.853462,24.447216 
	C76.046448,23.592209 75.487289,22.999804 74.403008,21.933903 
M111.587364,14.888569 
	C111.679985,13.699454 111.772598,12.510341 111.867020,11.298052 
	C109.670349,11.298052 107.964584,11.298052 105.334229,11.298052 
	C106.218140,13.501210 106.714836,15.247358 107.676460,16.681837 
	C107.855942,16.949575 109.900452,15.967067 111.587364,14.888569 
M152.823318,68.988312 
	C154.093140,68.988312 155.362976,68.988312 156.691833,68.988312 
	C156.691833,66.723808 156.691833,64.992699 156.691833,63.181526 
	C155.109573,63.181526 153.829468,63.181526 151.962402,63.181526 
	C151.962402,65.152718 151.962402,67.045624 152.823318,68.988312 
M151.086884,54.939934 
	C151.086884,56.197586 151.086884,57.455235 151.086884,58.659134 
	C153.364365,58.659134 155.100891,58.659134 156.701141,58.659134 
	C157.840408,53.330132 155.766312,52.332458 151.086884,54.939934 
M81.213341,22.278330 
	C85.923737,20.511892 83.814720,18.281218 81.796532,15.683553 
	C80.117653,16.539028 78.712440,17.255060 76.739456,18.260399 
	C78.216988,19.946964 79.424873,21.325748 81.213341,22.278330 
M51.792728,68.857574 
	C53.375198,68.857574 54.957668,68.857574 56.758102,68.857574 
	C56.758102,67.179565 56.758102,65.812195 56.758102,64.243439 
	C54.829247,64.243439 53.128643,64.243439 51.151825,64.243439 
	C51.151825,65.726875 51.151825,66.987846 51.792728,68.857574 
z"/>
<path fill="#0500E3" opacity="1.000000" stroke="none" 
	d="
M329.109344,92.000885 
	C322.959351,90.527412 317.597992,90.100945 311.430023,91.496216 
	C307.154419,92.463417 301.755035,88.462959 296.440704,86.530411 
	C292.994354,91.050407 287.368500,92.388664 280.371735,91.423637 
	C276.485443,90.887604 272.182312,88.962509 268.187164,91.849091 
	C267.583466,92.285255 266.071259,92.081383 265.337738,91.612663 
	C262.299713,89.671371 259.273132,90.538300 256.034698,90.868401 
	C252.302261,91.248856 248.465042,90.477135 244.669952,90.417000 
	C242.600601,90.384216 240.379318,90.385292 238.477341,91.068863 
	C231.779129,93.476227 226.374588,90.772125 221.136780,87.147141 
	C215.244629,94.009308 199.112274,94.120697 191.394455,87.236458 
	C183.265701,93.649345 173.716614,91.036697 164.639114,90.717461 
	C162.276108,90.634346 160.022797,87.432304 157.427521,85.438820 
	C162.573013,78.694878 160.758698,71.258293 160.913773,64.127388 
	C160.939499,62.944485 159.926910,61.649696 159.177216,60.555191 
	C156.417587,56.526356 157.958328,52.635159 162.780762,52.034729 
	C166.852081,51.527813 170.959442,51.286640 175.056702,51.016487 
	C183.235962,50.477184 190.515045,55.517548 192.761230,63.796967 
	C199.849701,59.469967 210.465149,58.374222 216.782120,67.665764 
	C220.789032,65.415169 224.489273,62.139751 228.671860,61.317337 
	C233.033936,60.459629 237.860901,61.966187 241.393875,62.327526 
	C241.795837,60.139065 241.340591,55.644768 243.163727,54.344166 
	C245.824371,52.446068 250.318008,51.844604 253.674637,52.503151 
	C258.322510,53.415028 258.485107,57.908997 258.049774,61.285854 
	C261.445465,61.652027 264.656616,61.998306 267.973602,62.355995 
	C267.973602,60.603275 267.399628,58.071709 268.140747,56.013760 
	C268.832947,54.091679 270.668610,51.667599 272.442963,51.221138 
	C277.672028,49.905399 283.933624,54.642567 285.512329,60.266048 
	C285.691040,60.902557 286.339020,61.538136 286.935120,61.904427 
	C289.809998,63.670910 292.741638,65.344971 295.676910,67.065758 
	C300.540985,59.527000 310.301331,59.988831 316.602081,63.030331 
	C317.828278,63.622211 319.545410,64.044479 320.766663,63.668900 
	C334.038147,59.587437 346.993683,58.450207 352.030975,73.490128 
	C355.335846,71.674042 358.775970,69.809822 362.190460,67.899750 
	C365.417694,66.094429 368.903381,66.541534 370.473419,69.428612 
	C371.956970,72.156654 372.069519,75.969093 367.566284,77.351311 
	C367.214417,77.459320 367.139709,78.470314 366.838379,79.345764 
	C369.300537,79.977928 371.538330,80.552475 374.272125,81.254372 
	C373.968445,76.009926 373.573914,70.909241 373.469818,65.802628 
	C373.451294,64.893890 374.519653,63.289478 375.289703,63.152779 
	C378.951233,62.502766 382.683105,62.249252 386.445862,61.848644 
	C387.100464,65.393814 387.659027,68.418884 388.296021,71.868797 
	C393.868713,72.087585 400.233826,71.042755 402.592438,78.678276 
	C403.994507,72.495461 405.248657,66.586708 412.300018,65.077690 
	C419.008362,63.642078 424.861725,66.388901 429.176849,73.474823 
	C429.469208,66.171486 433.808380,64.847916 439.239044,64.990891 
	C444.100342,65.118866 448.964447,65.140961 453.605072,65.206627 
	C454.355865,71.450485 454.876801,75.857643 449.230774,78.703995 
	C447.400299,79.626801 446.389618,83.383949 446.120605,85.961197 
	C445.414307,92.727829 440.861511,94.580582 434.441925,92.218513 
	C426.533600,89.308678 429.576233,83.276627 428.895020,78.086967 
	C426.501709,78.835464 424.192139,79.557762 420.539825,80.700012 
	C423.437897,80.937332 424.955505,81.061615 426.446289,81.183693 
	C427.798798,89.146255 426.331818,90.743332 418.246613,91.037086 
	C412.343170,91.251564 407.062103,90.476501 404.011658,84.607277 
	C403.643585,84.821175 403.256012,84.907295 403.160828,85.122650 
	C401.766174,88.278458 405.651215,93.377632 400.201965,94.816360 
	C396.901123,95.687843 393.194214,95.039925 389.669800,95.035286 
	C388.554016,95.033813 387.438416,94.905128 386.080292,94.819351 
	C386.080292,92.358513 386.080292,90.229218 386.080292,88.099922 
	C385.870819,88.061432 385.661346,88.022934 385.451843,87.984436 
	C384.826599,90.126572 384.201355,92.268707 383.561890,94.459541 
	C376.523071,95.693520 374.559540,94.228905 373.348969,86.691681 
	C374.343842,92.009918 370.798859,93.157310 366.997894,93.937164 
	C362.099518,94.942184 355.419006,92.220764 353.088409,88.283928 
	C352.433380,87.177452 352.087708,85.887848 351.357330,84.081841 
	C349.235626,92.144951 344.241119,93.262657 337.300537,91.214928 
	C334.995636,90.534912 332.149475,91.689682 329.109344,92.000885 
M408.294342,72.263641 
	C405.036926,76.320175 405.764618,81.336098 408.529083,84.205879 
	C412.283417,88.103241 417.691528,87.324913 422.942322,83.868881 
	C419.826813,83.868881 417.259125,84.147385 414.806274,83.738113 
	C413.757263,83.563087 412.947418,81.954849 412.028870,80.997864 
	C412.851562,80.257736 413.559235,79.269783 414.518707,78.824440 
	C417.280426,77.542595 420.143829,76.479904 424.197601,74.830536 
	C422.562866,72.599022 421.587341,70.342567 419.873108,69.133308 
	C416.937317,67.062355 413.718811,67.385773 410.283936,70.043327 
	C409.841125,70.680550 409.398315,71.317772 408.294342,72.263641 
M187.005280,76.474167 
	C186.675858,75.064232 186.806946,73.175835 185.931488,72.333191 
	C183.198151,69.702309 182.768051,67.335831 184.724747,63.920082 
	C185.449112,62.655548 184.797379,59.820107 183.764252,58.477493 
	C180.609085,54.377174 167.556732,53.485683 163.723236,56.355667 
	C167.038544,66.011497 167.095810,75.352798 163.563141,86.172569 
	C169.001297,85.776649 174.288773,85.471687 179.559311,84.983810 
	C184.150345,84.558846 186.597076,81.875275 187.005280,76.474167 
M385.313202,83.017220 
	C386.950806,85.143898 388.588409,87.270576 390.491608,89.742188 
	C392.015839,89.742188 394.279938,89.742188 396.896057,89.742188 
	C396.492737,84.402061 399.198029,78.428940 393.875153,74.885979 
	C391.712921,73.446793 387.793030,74.648376 383.455139,74.648376 
	C383.251343,72.351669 382.934937,68.786171 382.620148,65.238785 
	C380.701813,65.238785 379.099487,65.238785 377.366791,65.238785 
	C376.921722,73.481827 376.489075,81.494591 376.048340,89.657059 
	C379.026367,90.282890 380.678711,89.983101 381.161591,86.655060 
	C381.356964,85.308716 383.320679,84.218964 385.313202,83.017220 
M291.977936,74.700005 
	C290.456451,66.451767 283.107300,63.553959 277.199524,66.031349 
	C276.856140,64.447296 276.077515,62.862385 276.324585,61.457939 
	C276.598297,59.902210 277.809753,58.511467 278.763367,56.774796 
	C276.684937,56.143559 275.050079,55.647041 272.746765,54.947510 
	C272.746765,65.222450 272.746765,75.004784 272.746765,84.798828 
	C288.706482,85.841461 289.646790,85.388985 291.977936,74.700005 
M247.995773,70.517075 
	C247.788147,75.337227 247.580521,80.157387 247.351715,85.469208 
	C248.925522,85.469208 251.165482,85.469208 252.617935,85.469208 
	C252.275253,81.787987 251.974792,78.560265 251.685760,75.455414 
	C260.483002,73.418396 260.819000,81.148750 264.164032,85.077629 
	C264.643524,84.824005 265.123047,84.570381 265.602570,84.316757 
	C264.363983,80.510941 263.125397,76.705124 261.577087,71.947617 
	C262.013428,70.916954 262.966614,68.665375 263.919800,66.413788 
	C259.507446,68.026192 256.727692,73.671814 250.792664,68.918678 
	C250.792664,64.685211 250.792664,59.966782 250.792664,54.585403 
	C248.819107,55.907185 247.512970,56.781952 247.097778,57.060028 
	C247.425766,61.625748 247.710342,65.587067 247.995773,70.517075 
M341.042328,81.024170 
	C340.695862,82.766380 340.349426,84.508583 339.846863,87.035934 
	C344.063751,83.192772 346.063141,76.135155 344.619629,72.156113 
	C342.439789,66.147507 339.658203,64.722427 332.994751,65.871391 
	C331.424469,66.142143 329.722961,65.835678 328.106476,65.614426 
	C325.132446,65.207359 323.701874,66.367340 324.753448,69.272583 
	C326.758606,74.812241 326.708832,80.227951 324.008545,86.151031 
	C326.908142,85.904907 329.230286,85.707787 330.501404,85.599892 
	C330.063751,81.162025 329.139069,77.372833 329.488586,73.705070 
	C329.815552,70.274185 332.287445,68.748619 336.173737,69.532097 
	C342.964600,70.901154 340.586639,76.093292 341.042328,81.024170 
M315.166016,75.894417 
	C318.190552,70.700302 315.712067,65.090729 309.890167,65.216255 
	C306.820160,65.282433 302.392151,66.738091 301.103638,69.003372 
	C299.438202,71.931351 299.342957,76.570244 300.321472,79.968567 
	C301.438538,83.848175 305.416962,86.148262 309.624329,85.827690 
	C311.931152,85.651924 314.106232,83.746384 316.340698,82.620827 
	C311.738556,81.053917 306.848328,84.589813 303.550781,78.228500 
	C307.511078,77.458481 310.940491,76.791679 315.166016,75.894417 
M439.169861,85.831238 
	C439.443787,85.095680 440.021423,84.326096 439.943420,83.629959 
	C439.328552,78.141403 440.731232,74.022781 446.476959,71.936760 
	C447.514313,71.560127 447.786835,69.076767 448.534882,67.270332 
	C431.097107,66.065742 430.697479,70.281128 432.811554,85.972076 
	C434.613831,85.972076 436.439301,85.972076 439.169861,85.831238 
M206.392685,68.870842 
	C209.913437,72.452126 206.622070,73.061111 204.142532,73.983391 
	C201.767410,74.866821 198.743027,75.091888 197.170929,76.727753 
	C195.727509,78.229713 194.928207,81.484612 195.498169,83.499626 
	C196.205551,86.000496 198.678711,86.711800 201.608765,85.224533 
	C203.219513,84.406921 205.761871,84.339317 207.456757,85.011436 
	C210.466354,86.204926 212.277847,85.400024 213.183487,83.150848 
	C212.155594,79.978371 211.614304,76.941895 211.527176,73.892448 
	C211.373108,68.500153 208.988419,65.117012 204.268494,64.142868 
	C200.989746,63.466160 196.591003,66.141655 194.178406,70.965866 
	C196.059311,70.533524 197.263031,70.254227 198.468002,69.980408 
	C200.922714,69.422600 203.378098,68.867722 206.392685,68.870842 
M368.463165,87.949631 
	C368.633179,86.061104 368.803223,84.172569 368.981873,82.188126 
	C365.439026,81.948555 361.483795,82.143105 362.264709,77.848640 
	C362.750854,75.174995 365.375763,72.890251 367.040802,70.430969 
	C366.649567,69.893532 366.258331,69.356102 365.867096,68.818665 
	C362.625061,70.770370 358.628296,72.094193 356.342743,74.841599 
	C353.805206,77.891930 352.679260,82.146667 355.659271,86.223816 
	C359.065002,90.883369 363.620453,88.653389 368.463165,87.949631 
M230.830307,81.954742 
	C226.885437,80.639053 224.733856,77.665421 225.767090,73.819534 
	C227.743988,66.460999 233.722397,69.314720 238.614868,69.894829 
	C238.077286,65.627274 236.390427,64.278412 232.212311,64.470940 
	C226.331680,64.741943 221.254700,69.967232 221.366974,75.633141 
	C221.470016,80.833504 226.264969,86.107323 231.286026,85.898483 
	C234.651535,85.758507 238.433914,85.280869 239.083588,79.982048 
	C236.183823,80.758919 233.901062,81.370491 230.830307,81.954742 
z"/>
<path fill="#F86232" opacity="1.000000" stroke="none" 
	d="
M86.846481,101.015526 
	C72.114914,93.410576 63.764816,81.094345 63.218044,64.794136 
	C62.587753,46.004242 74.927597,28.861549 94.848358,24.089392 
	C108.447975,20.831511 120.673752,24.231438 131.171982,33.602947 
	C138.597916,40.231895 142.743713,48.242809 144.202881,58.313099 
	C146.211609,72.175972 141.706512,83.338020 132.396790,92.933914 
	C129.498734,95.921066 125.599625,97.936996 121.679344,100.549835 
	C118.162628,92.819733 114.375854,90.075584 106.430122,89.998947 
	C93.636169,89.875565 90.693810,91.530754 86.846481,101.015526 
M101.896614,44.233528 
	C100.821632,45.241917 99.912369,46.609879 98.642403,47.195225 
	C93.671227,49.486481 91.231133,53.369209 92.060204,58.218056 
	C92.808540,62.594727 96.585129,65.752907 101.654785,66.173592 
	C103.636520,66.338036 105.804016,65.936119 107.560493,66.624725 
	C109.018532,67.196335 110.687057,68.841835 110.994141,70.282021 
	C111.296600,71.700500 110.448601,73.945869 109.323929,74.971664 
	C106.586685,77.468285 99.686913,76.100746 97.144508,73.304039 
	C96.075417,72.128006 94.216682,71.669823 92.716919,70.885300 
	C92.236168,71.505882 91.755417,72.126465 91.274666,72.747040 
	C93.023262,74.946259 94.620689,77.291878 96.566071,79.300514 
	C98.263580,81.053230 100.208824,82.690826 102.333427,83.849884 
	C103.323479,84.389992 105.179176,84.031586 106.316559,83.446671 
	C107.890205,82.637398 109.027283,81.002243 110.579308,80.123413 
	C114.611778,77.840050 116.749931,74.623344 116.157951,69.920403 
	C115.559364,65.164864 112.649864,62.519680 108.056938,61.757378 
	C105.609024,61.351089 102.941147,61.745018 100.678932,60.928722 
	C99.159042,60.380291 97.470001,58.482487 97.166077,56.931774 
	C96.901474,55.581642 98.077805,53.340092 99.309959,52.426838 
	C102.277542,50.227341 108.622162,51.903217 111.246994,54.788162 
	C112.210381,55.847012 113.953812,56.196152 115.912544,57.145981 
	C116.108284,51.732368 113.922791,49.187336 110.319687,47.492554 
	C109.066765,46.903221 107.974373,45.975792 106.727707,45.369152 
	C105.266808,44.658264 103.717621,44.128822 101.896614,44.233528 
z"/>
<path fill="#0A5BE7" opacity="1.000000" stroke="none" 
	d="
M86.908646,101.371460 
	C90.693810,91.530754 93.636169,89.875565 106.430122,89.998947 
	C114.375854,90.075584 118.162628,92.819733 121.509155,100.863075 
	C121.878471,111.476036 122.171669,121.933777 121.915382,132.378021 
	C121.748772,139.167953 116.157204,146.223587 108.670105,145.080002 
	C105.588524,144.609314 102.302513,144.572357 99.236450,145.090027 
	C92.520836,146.223923 86.966476,140.089600 86.987457,132.032379 
	C86.976997,122.068130 86.971458,112.981346 86.965912,103.894554 
	C86.967545,103.172165 86.969177,102.449783 86.908646,101.371460 
M115.998405,123.468140 
	C115.998405,118.983032 115.998405,114.497925 115.998405,110.012817 
	C115.998405,109.348358 115.943741,108.678688 116.006462,108.020210 
	C117.286072,94.586960 108.220970,93.690773 98.817307,95.684441 
	C94.187378,96.666031 91.990814,99.825424 91.998245,104.550316 
	C92.011826,113.188278 91.961571,121.826660 92.042664,130.463882 
	C92.055977,131.881271 92.405182,133.374268 92.939346,134.694672 
	C95.532913,141.105743 101.229874,140.002731 106.357719,139.965347 
	C112.556038,139.920166 116.974518,136.237305 116.047272,130.425247 
	C115.737144,128.481354 115.998360,126.446297 115.998405,123.468140 
z"/>
<path fill="#075CE9" opacity="1.000000" stroke="none" 
	d="
M64.294434,33.774479 
	C60.383732,30.062223 64.166092,28.886972 65.923737,26.666164 
	C67.389565,28.024967 68.564369,29.113993 70.865349,31.246971 
	C68.317032,32.351891 66.445381,33.163414 64.294434,33.774479 
z"/>
<path fill="#075AE9" opacity="1.000000" stroke="none" 
	d="
M129.722656,109.173218 
	C128.895920,107.591843 128.340164,106.270088 127.769104,104.911896 
	C129.190750,103.922920 130.360519,103.109154 131.962799,101.994514 
	C132.965820,103.612144 133.954590,105.206818 134.943375,106.801498 
	C133.293457,107.678612 131.643555,108.555733 129.722656,109.173218 
z"/>
<path fill="#085BE9" opacity="1.000000" stroke="none" 
	d="
M61.685822,96.144226 
	C61.258350,94.131439 60.289700,91.508362 61.082294,90.766205 
	C64.630096,87.444122 65.410706,91.310036 67.152924,94.141525 
	C65.377068,94.913170 63.666286,95.656532 61.685822,96.144226 
z"/>
<path fill="#075BE9" opacity="1.000000" stroke="none" 
	d="
M127.145996,22.527182 
	C123.021255,20.654911 124.111076,18.005468 125.616173,15.042140 
	C127.272087,15.760352 128.984253,16.502964 131.538544,17.610821 
	C130.041046,19.485062 128.734833,21.119879 127.145996,22.527182 
z"/>
<path fill="#085BE9" opacity="1.000000" stroke="none" 
	d="
M140.653336,102.737030 
	C138.508713,102.427673 136.647888,101.927010 133.771255,101.153038 
	C135.941437,98.747543 137.113937,97.447914 138.752319,95.631882 
	C138.828049,98.519775 145.184845,98.400055 140.653336,102.737030 
z"/>
<path fill="#085BEA" opacity="1.000000" stroke="none" 
	d="
M53.071793,49.045364 
	C53.622688,47.177711 54.219746,45.707966 54.939243,43.936829 
	C56.790840,44.500340 58.258430,44.946983 60.079380,45.501171 
	C59.604702,47.273918 59.160164,48.934101 58.640991,50.873009 
	C56.730312,50.378395 54.924133,49.910835 53.071793,49.045364 
z"/>
<path fill="#085BE8" opacity="1.000000" stroke="none" 
	d="
M86.918022,13.642145 
	C88.557816,12.950810 89.943169,12.536119 91.706505,12.008286 
	C92.210068,13.828753 92.698959,15.596196 93.179344,17.332851 
	C87.593254,19.208080 87.593254,19.208080 86.918022,13.642145 
z"/>
<path fill="#075BEA" opacity="1.000000" stroke="none" 
	d="
M60.066376,87.436104 
	C56.776619,88.981400 55.400921,86.855080 55.485756,84.696632 
	C55.538948,83.343124 57.699463,82.072441 59.141575,80.520157 
	C61.057491,83.114189 63.318840,84.762184 60.066376,87.436104 
z"/>
<path fill="#075CEA" opacity="1.000000" stroke="none" 
	d="
M58.667088,41.272415 
	C58.337006,39.068741 58.337006,37.064781 58.337006,33.898811 
	C61.142345,35.789425 62.438938,36.663242 64.021286,37.729637 
	C62.796452,39.622097 63.048386,43.143246 58.667088,41.272415 
z"/>
<path fill="#085BE8" opacity="1.000000" stroke="none" 
	d="
M117.498215,18.214510 
	C112.170013,16.509523 116.246338,14.181516 116.354546,11.908535 
	C118.312599,12.625542 119.937553,13.220574 123.048798,14.359863 
	C120.801605,16.095518 119.330162,17.232014 117.498215,18.214510 
z"/>
<path fill="#085BE8" opacity="1.000000" stroke="none" 
	d="
M137.806427,25.688023 
	C136.082748,26.145489 134.595978,26.345686 133.109192,26.545883 
	C133.109192,24.560118 133.109192,22.574352 133.109192,20.588585 
	C133.641373,20.393665 134.173538,20.198746 134.705719,20.003826 
	C134.758224,22.708191 140.189453,20.869263 137.806427,25.688023 
z"/>
<path fill="#085BE8" opacity="1.000000" stroke="none" 
	d="
M143.762085,28.267691 
	C144.677216,29.241884 145.340973,29.963352 146.284393,30.988806 
	C144.587509,32.155968 143.071243,33.198898 141.271729,34.436657 
	C140.131683,32.964832 139.190598,31.749865 137.435608,29.484140 
	C139.815186,28.908674 141.662949,28.461819 143.762085,28.267691 
z"/>
<path fill="#085AE8" opacity="1.000000" stroke="none" 
	d="
M73.506424,106.115746 
	C75.485382,101.989700 77.834663,102.731483 80.902054,105.438194 
	C79.874535,106.784958 78.847122,109.278389 77.714897,109.326927 
	C76.281654,109.388367 74.763138,107.461014 73.506424,106.115746 
z"/>
<path fill="#075BE9" opacity="1.000000" stroke="none" 
	d="
M144.566711,96.055733 
	C139.814407,93.818375 143.323990,91.610077 143.571182,89.480080 
	C144.315506,88.911163 145.059830,88.342247 145.804153,87.773331 
	C146.713852,89.467758 148.292480,91.159782 148.298584,92.857475 
	C148.302689,93.992996 146.071945,95.136551 144.566711,96.055733 
z"/>
<path fill="#085AE9" opacity="1.000000" stroke="none" 
	d="
M70.605232,103.619949 
	C68.727051,102.550217 64.635834,102.774017 66.506401,99.253998 
	C68.352783,95.779495 70.905113,96.501778 72.991196,99.867332 
	C72.347443,100.938828 71.615952,102.156364 70.605232,103.619949 
z"/>
<path fill="#085BE8" opacity="1.000000" stroke="none" 
	d="
M98.207275,16.929913 
	C97.037018,15.234435 96.280029,13.585423 95.239761,11.319326 
	C97.884949,11.319326 99.595192,11.319326 101.696472,11.319326 
	C101.941765,13.865908 103.224968,16.800541 98.207275,16.929913 
z"/>
<path fill="#085BE8" opacity="1.000000" stroke="none" 
	d="
M148.033905,81.958519 
	C153.580139,82.178627 154.082413,83.253334 150.972336,88.039330 
	C150.404373,87.909439 149.724915,87.877060 149.167465,87.599586 
	C148.172394,87.104256 147.250961,86.460960 146.151306,85.789505 
	C146.795837,84.540863 147.370514,83.427544 148.033905,81.958519 
z"/>
<path fill="#085BE9" opacity="1.000000" stroke="none" 
	d="
M52.024025,74.839600 
	C53.797184,73.803696 55.560123,73.185577 57.502995,72.504372 
	C57.915981,74.698265 58.175648,76.077690 58.460526,77.591049 
	C57.042526,78.077316 55.549839,78.589195 53.640324,79.244011 
	C53.054409,77.807907 52.534111,76.532639 52.024025,74.839600 
z"/>
<path fill="#085BE8" opacity="1.000000" stroke="none" 
	d="
M155.960938,76.688263 
	C154.325302,77.396484 152.715927,77.699486 151.106567,78.002487 
	C150.902390,76.221817 150.698212,74.441154 150.494034,72.660484 
	C151.153671,72.365707 151.813293,72.070923 152.472931,71.776138 
	C153.644363,73.278435 154.815796,74.780739 155.960938,76.688263 
z"/>
<path fill="#085AE8" opacity="1.000000" stroke="none" 
	d="
M51.076092,57.929993 
	C51.506817,54.132755 53.483082,53.350536 56.744877,54.410927 
	C56.744877,56.064537 56.744877,57.777470 56.744877,60.546986 
	C54.580784,59.700264 52.847286,59.022018 51.076092,57.929993 
z"/>
<path fill="#085AE8" opacity="1.000000" stroke="none" 
	d="
M151.247009,44.044800 
	C152.717072,45.468254 153.790222,46.919464 154.863358,48.370674 
	C153.235184,49.076054 151.607025,49.781437 149.791229,50.568104 
	C148.710251,47.610455 146.773438,45.230289 151.247009,44.044800 
z"/>
<path fill="#085BE9" opacity="1.000000" stroke="none" 
	d="
M148.314636,41.278366 
	C146.495728,40.470562 144.985382,39.457493 142.810989,37.999027 
	C145.396759,36.476738 146.736664,35.687912 148.464355,34.670784 
	C149.059357,37.049110 153.624481,38.725746 148.314636,41.278366 
z"/>
<path fill="#085AE8" opacity="1.000000" stroke="none" 
	d="
M74.665573,22.170650 
	C75.487289,22.999804 76.046448,23.592209 76.853462,24.447216 
	C75.686096,25.673336 74.533440,26.884018 72.766029,28.740391 
	C71.537659,26.892502 70.487671,25.312958 69.037506,23.131418 
	C70.706100,22.759008 72.554550,22.346455 74.665573,22.170650 
z"/>
<path fill="#085AE8" opacity="1.000000" stroke="none" 
	d="
M111.335815,15.225056 
	C109.900452,15.967067 107.855942,16.949575 107.676460,16.681837 
	C106.714836,15.247358 106.218140,13.501210 105.334229,11.298052 
	C107.964584,11.298052 109.670349,11.298052 111.867020,11.298052 
	C111.772598,12.510341 111.679985,13.699454 111.335815,15.225056 
z"/>
<path fill="#085BE9" opacity="1.000000" stroke="none" 
	d="
M152.392853,68.963425 
	C151.962402,67.045624 151.962402,65.152718 151.962402,63.181526 
	C153.829468,63.181526 155.109573,63.181526 156.691833,63.181526 
	C156.691833,64.992699 156.691833,66.723808 156.691833,68.988312 
	C155.362976,68.988312 154.093140,68.988312 152.392853,68.963425 
z"/>
<path fill="#095BE8" opacity="1.000000" stroke="none" 
	d="
M151.285431,54.568359 
	C155.766312,52.332458 157.840408,53.330132 156.701141,58.659134 
	C155.100891,58.659134 153.364365,58.659134 151.086884,58.659134 
	C151.086884,57.455235 151.086884,56.197586 151.285431,54.568359 
z"/>
<path fill="#085BE8" opacity="1.000000" stroke="none" 
	d="
M80.923050,22.491430 
	C79.424873,21.325748 78.216988,19.946964 76.739456,18.260399 
	C78.712440,17.255060 80.117653,16.539028 81.796532,15.683553 
	C83.814720,18.281218 85.923737,20.511892 80.923050,22.491430 
z"/>
<path fill="#095BE8" opacity="1.000000" stroke="none" 
	d="
M51.472275,68.553192 
	C51.151825,66.987846 51.151825,65.726875 51.151825,64.243439 
	C53.128643,64.243439 54.829247,64.243439 56.758102,64.243439 
	C56.758102,65.812195 56.758102,67.179565 56.758102,68.857574 
	C54.957668,68.857574 53.375198,68.857574 51.472275,68.553192 
z"/>
<path fill="#0060FF" opacity="1.000000" stroke="none" 
	d="
M86.599228,104.135994 
	C86.971458,112.981346 86.976997,122.068130 86.974335,131.630219 
	C86.644081,129.609207 86.071747,127.115250 86.048241,124.616119 
	C85.984779,117.871063 86.155029,111.123810 86.599228,104.135994 
z"/>
<path fill="#000000" opacity="1.000000" stroke="none" 
	d="
M187.003510,76.888519 
	C186.597076,81.875275 184.150345,84.558846 179.559311,84.983810 
	C174.288773,85.471687 169.001297,85.776649 163.563141,86.172569 
	C167.095810,75.352798 167.038544,66.011497 163.723236,56.355667 
	C167.556732,53.485683 180.609085,54.377174 183.764252,58.477493 
	C184.797379,59.820107 185.449112,62.655548 184.724747,63.920082 
	C182.768051,67.335831 183.198151,69.702309 185.931488,72.333191 
	C186.806946,73.175835 186.675858,75.064232 187.003510,76.888519 
M174.493042,72.008324 
	C173.061203,72.094688 171.629379,72.181053 170.012039,72.278603 
	C170.012039,74.265785 169.558594,76.084785 170.129089,77.487267 
	C170.811661,79.165268 172.410828,81.756599 173.539948,81.719643 
	C176.621964,81.618782 179.810165,80.640602 182.600616,79.280327 
	C183.148926,79.013039 182.786972,74.757324 181.610184,73.630981 
	C180.261383,72.339973 177.536743,72.486389 174.493042,72.008324 
M173.054657,67.602631 
	C175.623306,66.602051 178.191956,65.601471 180.760605,64.600899 
	C179.990005,63.020920 179.625122,60.682392 178.368835,60.010468 
	C175.239670,58.336819 171.756714,57.724476 169.012115,61.770931 
	C170.108093,63.461060 171.289139,65.282333 173.054657,67.602631 
z"/>
<path fill="#000000" opacity="1.000000" stroke="none" 
	d="
M384.896423,83.014832 
	C383.320679,84.218964 381.356964,85.308716 381.161591,86.655060 
	C380.678711,89.983101 379.026367,90.282890 376.048340,89.657059 
	C376.489075,81.494591 376.921722,73.481827 377.366791,65.238785 
	C379.099487,65.238785 380.701813,65.238785 382.620148,65.238785 
	C382.934937,68.786171 383.251343,72.351669 383.455139,74.648376 
	C387.793030,74.648376 391.712921,73.446793 393.875153,74.885979 
	C399.198029,78.428940 396.492737,84.402061 396.896057,89.742188 
	C394.279938,89.742188 392.015839,89.742188 390.491608,89.742188 
	C388.588409,87.270576 386.950806,85.143898 384.896423,83.014832 
z"/>
<path fill="#000000" opacity="1.000000" stroke="none" 
	d="
M291.982361,75.103836 
	C289.646790,85.388985 288.706482,85.841461 272.746765,84.798828 
	C272.746765,75.004784 272.746765,65.222450 272.746765,54.947510 
	C275.050079,55.647041 276.684937,56.143559 278.763367,56.774796 
	C277.809753,58.511467 276.598297,59.902210 276.324585,61.457939 
	C276.077515,62.862385 276.856140,64.447296 277.199524,66.031349 
	C283.107300,63.553959 290.456451,66.451767 291.982361,75.103836 
M283.760803,69.298531 
	C279.930878,68.373665 276.681152,68.797356 276.063690,73.477341 
	C275.643951,76.658691 275.217773,80.600845 279.059387,81.735794 
	C281.928040,82.583275 285.792877,83.064957 287.503967,78.943703 
	C289.137939,75.008118 288.888428,71.669823 283.760803,69.298531 
z"/>
<path fill="#000000" opacity="1.000000" stroke="none" 
	d="
M247.995346,70.032730 
	C247.710342,65.587067 247.425766,61.625748 247.097778,57.060028 
	C247.512970,56.781952 248.819107,55.907185 250.792664,54.585403 
	C250.792664,59.966782 250.792664,64.685211 250.792664,68.918678 
	C256.727692,73.671814 259.507446,68.026192 263.919800,66.413788 
	C262.966614,68.665375 262.013428,70.916954 261.577087,71.947617 
	C263.125397,76.705124 264.363983,80.510941 265.602570,84.316757 
	C265.123047,84.570381 264.643524,84.824005 264.164032,85.077629 
	C260.819000,81.148750 260.483002,73.418396 251.685760,75.455414 
	C251.974792,78.560265 252.275253,81.787987 252.617935,85.469208 
	C251.165482,85.469208 248.925522,85.469208 247.351715,85.469208 
	C247.580521,80.157387 247.788147,75.337227 247.995346,70.032730 
z"/>
<path fill="#000000" opacity="1.000000" stroke="none" 
	d="
M341.038177,80.588776 
	C340.586639,76.093292 342.964600,70.901154 336.173737,69.532097 
	C332.287445,68.748619 329.815552,70.274185 329.488586,73.705070 
	C329.139069,77.372833 330.063751,81.162025 330.501404,85.599892 
	C329.230286,85.707787 326.908142,85.904907 324.008545,86.151031 
	C326.708832,80.227951 326.758606,74.812241 324.753448,69.272583 
	C323.701874,66.367340 325.132446,65.207359 328.106476,65.614426 
	C329.722961,65.835678 331.424469,66.142143 332.994751,65.871391 
	C339.658203,64.722427 342.439789,66.147507 344.619629,72.156113 
	C346.063141,76.135155 344.063751,83.192772 339.846863,87.035934 
	C340.349426,84.508583 340.695862,82.766380 341.038177,80.588776 
z"/>
<path fill="#000000" opacity="1.000000" stroke="none" 
	d="
M314.767944,76.009651 
	C310.940491,76.791679 307.511078,77.458481 303.550781,78.228500 
	C306.848328,84.589813 311.738556,81.053917 316.340698,82.620827 
	C314.106232,83.746384 311.931152,85.651924 309.624329,85.827690 
	C305.416962,86.148262 301.438538,83.848175 300.321472,79.968567 
	C299.342957,76.570244 299.438202,71.931351 301.103638,69.003372 
	C302.392151,66.738091 306.820160,65.282433 309.890167,65.216255 
	C315.712067,65.090729 318.190552,70.700302 314.767944,76.009651 
M312.803833,70.274048 
	C310.496246,69.889969 308.093536,68.974953 305.924408,69.363632 
	C304.955566,69.537231 303.417633,73.172668 303.919617,73.791275 
	C306.360626,76.799385 312.192322,74.823982 312.803833,70.274048 
z"/>
<path fill="#000000" opacity="1.000000" stroke="none" 
	d="
M438.717346,85.901657 
	C436.439301,85.972076 434.613831,85.972076 432.811554,85.972076 
	C430.697479,70.281128 431.097107,66.065742 448.534882,67.270332 
	C447.786835,69.076767 447.514313,71.560127 446.476959,71.936760 
	C440.731232,74.022781 439.328552,78.141403 439.943420,83.629959 
	C440.021423,84.326096 439.443787,85.095680 438.717346,85.901657 
z"/>
<path fill="#000000" opacity="1.000000" stroke="none" 
	d="
M206.112946,68.591248 
	C203.378098,68.867722 200.922714,69.422600 198.468002,69.980408 
	C197.263031,70.254227 196.059311,70.533524 194.178406,70.965866 
	C196.591003,66.141655 200.989746,63.466160 204.268494,64.142868 
	C208.988419,65.117012 211.373108,68.500153 211.527176,73.892448 
	C211.614304,76.941895 212.155594,79.978371 213.183487,83.150848 
	C212.277847,85.400024 210.466354,86.204926 207.456757,85.011436 
	C205.761871,84.339317 203.219513,84.406921 201.608765,85.224533 
	C198.678711,86.711800 196.205551,86.000496 195.498169,83.499626 
	C194.928207,81.484612 195.727509,78.229713 197.170929,76.727753 
	C198.743027,75.091888 201.767410,74.866821 204.142532,73.983391 
	C206.622070,73.061111 209.913437,72.452126 206.112946,68.591248 
M207.934998,78.281891 
	C207.919952,73.405006 203.960068,74.651077 201.943832,75.327377 
	C200.251236,75.895103 199.161392,78.606964 198.148132,80.548759 
	C197.954315,80.920174 199.286179,82.749710 200.040665,82.839119 
	C203.271820,83.222015 206.698898,83.489388 207.934998,78.281891 
z"/>
<path fill="#000000" opacity="1.000000" stroke="none" 
	d="
M368.151703,88.264542 
	C363.620453,88.653389 359.065002,90.883369 355.659271,86.223816 
	C352.679260,82.146667 353.805206,77.891930 356.342743,74.841599 
	C358.628296,72.094193 362.625061,70.770370 365.867096,68.818665 
	C366.258331,69.356102 366.649567,69.893532 367.040802,70.430969 
	C365.375763,72.890251 362.750854,75.174995 362.264709,77.848640 
	C361.483795,82.143105 365.439026,81.948555 368.981873,82.188126 
	C368.803223,84.172569 368.633179,86.061104 368.151703,88.264542 
z"/>
<path fill="#000000" opacity="1.000000" stroke="none" 
	d="
M231.224304,81.968399 
	C233.901062,81.370491 236.183823,80.758919 239.083588,79.982048 
	C238.433914,85.280869 234.651535,85.758507 231.286026,85.898483 
	C226.264969,86.107323 221.470016,80.833504 221.366974,75.633141 
	C221.254700,69.967232 226.331680,64.741943 232.212311,64.470940 
	C236.390427,64.278412 238.077286,65.627274 238.614868,69.894829 
	C233.722397,69.314720 227.743988,66.460999 225.767090,73.819534 
	C224.733856,77.665421 226.885437,80.639053 231.224304,81.968399 
z"/>
<path fill="#000000" opacity="1.000000" stroke="none" 
	d="
M410.954498,69.956009 
	C413.718811,67.385773 416.937317,67.062355 419.873108,69.133308 
	C421.587341,70.342567 422.562866,72.599022 424.197601,74.830536 
	C420.143829,76.479904 417.280426,77.542595 414.518707,78.824440 
	C413.559235,79.269783 412.851562,80.257736 412.028870,80.997849 
	C412.947418,81.954849 413.757263,83.563087 414.806274,83.738113 
	C417.259125,84.147385 419.826813,83.868881 422.942322,83.868881 
	C417.691528,87.324913 412.283417,88.103241 408.529083,84.205879 
	C405.764618,81.336098 405.036926,76.320175 408.802521,72.290070 
	C409.429077,72.436996 409.547424,72.557510 409.433228,72.968994 
	C408.840485,74.728386 408.480316,76.196785 407.863556,78.711426 
	C411.480713,77.212860 414.276733,76.197510 416.928314,74.889404 
	C418.075714,74.323372 418.925018,73.153183 419.909729,72.257431 
	C418.759705,71.516029 417.680542,70.348328 416.441498,70.142288 
	C414.927917,69.890579 413.280090,70.445877 411.506348,70.478165 
	C411.199738,70.188095 411.077118,70.072052 410.954498,69.956009 
z"/>
<path fill="#000000" opacity="1.000000" stroke="none" 
	d="
M409.133118,72.135742 
	C409.398315,71.317772 409.841125,70.680550 410.619202,69.999664 
	C411.077118,70.072052 411.199738,70.188095 411.325897,70.701996 
	C410.774872,71.625900 410.220337,72.151955 409.665802,72.678009 
	C409.547424,72.557510 409.429077,72.436996 409.133118,72.135742 
z"/>
<path fill="#3F1933" opacity="1.000000" stroke="none" 
	d="
M102.051666,43.877102 
	C103.717621,44.128822 105.266808,44.658264 106.727707,45.369152 
	C107.974373,45.975792 109.066765,46.903221 110.319687,47.492554 
	C113.922791,49.187336 116.108284,51.732368 115.912544,57.145981 
	C113.953812,56.196152 112.210381,55.847012 111.246994,54.788162 
	C108.622162,51.903217 102.277542,50.227341 99.309959,52.426838 
	C98.077805,53.340092 96.901474,55.581642 97.166077,56.931774 
	C97.470001,58.482487 99.159042,60.380291 100.678932,60.928722 
	C102.941147,61.745018 105.609024,61.351089 108.056938,61.757378 
	C112.649864,62.519680 115.559364,65.164864 116.157951,69.920403 
	C116.749931,74.623344 114.611778,77.840050 110.579308,80.123413 
	C109.027283,81.002243 107.890205,82.637398 106.316559,83.446671 
	C105.179176,84.031586 103.323479,84.389992 102.333427,83.849884 
	C100.208824,82.690826 98.263580,81.053230 96.566071,79.300514 
	C94.620689,77.291878 93.023262,74.946259 91.274666,72.747040 
	C91.755417,72.126465 92.236168,71.505882 92.716919,70.885300 
	C94.216682,71.669823 96.075417,72.128006 97.144508,73.304039 
	C99.686913,76.100746 106.586685,77.468285 109.323929,74.971664 
	C110.448601,73.945869 111.296600,71.700500 110.994141,70.282021 
	C110.687057,68.841835 109.018532,67.196335 107.560493,66.624725 
	C105.804016,65.936119 103.636520,66.338036 101.654785,66.173592 
	C96.585129,65.752907 92.808540,62.594727 92.060204,58.218056 
	C91.231133,53.369209 93.671227,49.486481 98.642403,47.195225 
	C99.912369,46.609879 100.821632,45.241917 102.051666,43.877102 
z"/>
<path fill="#000000" opacity="1.000000" stroke="none" 
	d="
M115.998405,123.960526 
	C115.998360,126.446297 115.737144,128.481354 116.047272,130.425247 
	C116.974518,136.237305 112.556038,139.920166 106.357719,139.965347 
	C101.229874,140.002731 95.532913,141.105743 92.939346,134.694672 
	C92.405182,133.374268 92.055977,131.881271 92.042664,130.463882 
	C91.961571,121.826660 92.011826,113.188278 91.998245,104.550316 
	C91.990814,99.825424 94.187378,96.666031 98.817307,95.684441 
	C108.220970,93.690773 117.286072,94.586960 116.006462,108.020210 
	C115.943741,108.678688 115.998405,109.348358 115.998405,110.012817 
	C115.998405,114.497925 115.998405,118.983032 115.998405,123.960526 
M103.619347,100.017288 
	C101.233353,100.737000 99.078140,101.907288 100.484772,104.765556 
	C101.145058,106.107246 102.934029,107.556030 104.318092,107.670792 
	C105.439186,107.763733 107.893890,105.509102 107.721405,105.032562 
	C107.058205,103.200294 105.576157,101.664413 103.619347,100.017288 
z"/>
<path fill="#0500E4" opacity="1.000000" stroke="none" 
	d="
M174.951431,72.008324 
	C177.536743,72.486389 180.261383,72.339973 181.610184,73.630981 
	C182.786972,74.757324 183.148926,79.013039 182.600616,79.280327 
	C179.810165,80.640602 176.621964,81.618782 173.539948,81.719643 
	C172.410828,81.756599 170.811661,79.165268 170.129089,77.487267 
	C169.558594,76.084785 170.012039,74.265785 170.012039,72.278603 
	C171.629379,72.181053 173.061203,72.094688 174.951431,72.008324 
z"/>
<path fill="#0600E3" opacity="1.000000" stroke="none" 
	d="
M172.762421,67.353119 
	C171.289139,65.282333 170.108093,63.461060 169.012115,61.770931 
	C171.756714,57.724476 175.239670,58.336819 178.368835,60.010468 
	C179.625122,60.682392 179.990005,63.020920 180.760605,64.600891 
	C178.191956,65.601471 175.623306,66.602051 172.762421,67.353119 
z"/>
<path fill="#0500E4" opacity="1.000000" stroke="none" 
	d="
M284.068237,69.558281 
	C288.888428,71.669823 289.137939,75.008118 287.503967,78.943703 
	C285.792877,83.064957 281.928040,82.583275 279.059387,81.735794 
	C275.217773,80.600845 275.643951,76.658691 276.063690,73.477341 
	C276.681152,68.797356 279.930878,68.373665 284.068237,69.558281 
z"/>
<path fill="#0500E4" opacity="1.000000" stroke="none" 
	d="
M313.061340,70.568375 
	C312.192322,74.823982 306.360626,76.799385 303.919617,73.791275 
	C303.417633,73.172668 304.955566,69.537231 305.924408,69.363632 
	C308.093536,68.974953 310.496246,69.889969 313.061340,70.568375 
z"/>
<path fill="#0500E5" opacity="1.000000" stroke="none" 
	d="
M207.741150,78.646072 
	C206.698898,83.489388 203.271820,83.222015 200.040665,82.839119 
	C199.286179,82.749710 197.954315,80.920174 198.148132,80.548759 
	C199.161392,78.606964 200.251236,75.895103 201.943832,75.327377 
	C203.960068,74.651077 207.919952,73.405006 207.741150,78.646072 
z"/>
<path fill="#0500E2" opacity="1.000000" stroke="none" 
	d="
M409.433228,72.968994 
	C410.220337,72.151955 410.774872,71.625900 411.509888,70.876015 
	C413.280090,70.445877 414.927917,69.890579 416.441498,70.142288 
	C417.680542,70.348328 418.759705,71.516029 419.909729,72.257431 
	C418.925018,73.153183 418.075714,74.323372 416.928314,74.889404 
	C414.276733,76.197510 411.480713,77.212860 407.863556,78.711426 
	C408.480316,76.196785 408.840485,74.728386 409.433228,72.968994 
z"/>
<path fill="#085BE9" opacity="1.000000" stroke="none" 
	d="
M104.009422,100.017639 
	C105.576157,101.664413 107.058205,103.200294 107.721405,105.032562 
	C107.893890,105.509102 105.439186,107.763733 104.318092,107.670792 
	C102.934029,107.556030 101.145058,106.107246 100.484772,104.765556 
	C99.078140,101.907288 101.233353,100.737000 104.009422,100.017639 
z"/>
</svg>