<svg version="1.1" id="Layer_1" xmlns="http://www.w3.org/2000/svg" xmlns:xlink="http://www.w3.org/1999/xlink" x="0px" y="0px"
	 width="100%" viewBox="0 0 258 163" enable-background="new 0 0 258 163" xml:space="preserve">
<path fill="#000000" opacity="1.000000" stroke="none" 
	d="
M166.000000,164.000000 
	C110.666672,164.000000 55.833340,164.000000 1.000007,164.000000 
	C1.000005,109.666672 1.000005,55.333347 1.000002,1.000015 
	C86.999992,1.000010 172.999985,1.000010 259.000000,1.000005 
	C259.000000,55.333317 259.000000,109.666634 259.000000,163.999969 
	C228.166672,164.000000 197.333328,164.000000 166.000000,164.000000 
M94.024498,76.990105 
	C94.045677,91.278397 94.066864,105.566689 93.380928,120.003761 
	C92.032928,120.393555 90.684921,120.783356 88.417870,121.229240 
	C88.243881,124.750275 88.069901,128.271301 87.893349,131.844193 
	C102.821846,131.844193 116.919907,131.844193 131.814484,131.957001 
	C139.470444,131.195541 145.427170,127.725540 147.777908,120.188950 
	C151.200180,109.216949 147.929535,100.644943 136.843063,95.721275 
	C143.959442,90.488678 146.431961,83.742393 144.194931,76.655258 
	C141.599411,68.432381 135.877472,64.194862 126.682274,63.208431 
	C117.287453,63.139503 107.892578,63.029526 98.497879,63.043388 
	C96.989502,63.045616 95.481926,63.600971 93.193535,63.993004 
	C89.219307,64.308693 88.116020,66.391525 87.822464,70.382156 
	C87.434990,75.649605 91.685188,74.510147 94.024498,76.990105 
z"/>
<path fill="#E67336" opacity="1.000000" stroke="none" 
	d="
M127.097504,63.993343 
	C135.877472,64.194862 141.599411,68.432381 144.194931,76.655258 
	C146.431961,83.742393 143.959442,90.488678 136.843063,95.721275 
	C147.929535,100.644943 151.200180,109.216949 147.777908,120.188950 
	C145.427170,127.725540 139.470444,131.195541 131.046112,131.714874 
	C128.299942,131.309204 126.322769,131.013916 124.344231,131.004364 
	C114.534370,130.957001 104.721634,130.855820 94.915192,131.045822 
	C90.580643,131.129822 88.734558,129.400162 89.094322,125.150406 
	C89.206329,123.827293 89.257759,122.499039 89.336914,121.173141 
	C90.684921,120.783356 92.032928,120.393555 93.964828,119.599380 
	C94.662659,105.397987 94.787567,91.601028 94.852180,77.803787 
	C94.854889,77.225540 94.295792,76.644653 93.998428,76.064995 
	C91.685188,74.510147 87.434990,75.649605 87.822464,70.382156 
	C88.116020,66.391525 89.219307,64.308693 94.051636,63.978668 
	C105.639000,63.974003 116.368248,63.983673 127.097504,63.993343 
M127.136803,115.292580 
	C130.007401,105.848846 126.250175,102.661812 113.214867,104.692062 
	C114.065582,109.244453 113.611061,114.839111 116.156654,118.070030 
	C118.482460,121.022003 123.380600,118.456734 127.136803,115.292580 
M123.920349,78.428169 
	C120.820984,77.800621 117.721619,77.173073 113.991257,76.417755 
	C113.991257,80.861305 113.706207,84.342628 114.143738,87.730629 
	C114.299751,88.938766 116.104858,90.715660 117.331825,90.873238 
	C123.874222,91.713417 126.925896,86.498695 123.920349,78.428169 
z"/>
<path fill="#CA825D" opacity="1.000000" stroke="none" 
	d="
M88.877396,121.201187 
	C89.257759,122.499039 89.206329,123.827293 89.094322,125.150406 
	C88.734558,129.400162 90.580643,131.129822 94.915192,131.045822 
	C104.721634,130.855820 114.534370,130.957001 124.344231,131.004364 
	C126.322769,131.013916 128.299942,131.309204 130.647858,131.658478 
	C116.919907,131.844193 102.821846,131.844193 87.893349,131.844193 
	C88.069901,128.271301 88.243881,124.750275 88.877396,121.201187 
z"/>
<path fill="#F4C4A9" opacity="1.000000" stroke="none" 
	d="
M94.011459,76.527550 
	C94.295792,76.644653 94.854889,77.225540 94.852180,77.803787 
	C94.787567,91.601028 94.662659,105.397987 94.318382,119.524986 
	C94.066864,105.566689 94.045677,91.278397 94.011459,76.527550 
z"/>
<path fill="#F2A884" opacity="1.000000" stroke="none" 
	d="
M126.889893,63.600887 
	C116.368248,63.983673 105.639000,63.974003 94.441864,63.932480 
	C95.481926,63.600971 96.989502,63.045616 98.497879,63.043388 
	C107.892578,63.029526 117.287453,63.139503 126.889893,63.600887 
z"/>
<path fill="#000000" opacity="1.000000" stroke="none" 
	d="
M126.865196,115.598785 
	C123.380600,118.456734 118.482460,121.022003 116.156654,118.070030 
	C113.611061,114.839111 114.065582,109.244453 113.214867,104.692062 
	C126.250175,102.661812 130.007401,105.848846 126.865196,115.598785 
z"/>
<path fill="#000000" opacity="1.000000" stroke="none" 
	d="
M124.207321,78.720627 
	C126.925896,86.498695 123.874222,91.713417 117.331825,90.873238 
	C116.104858,90.715660 114.299751,88.938766 114.143738,87.730629 
	C113.706207,84.342628 113.991257,80.861305 113.991257,76.417755 
	C117.721619,77.173073 120.820984,77.800621 124.207321,78.720627 
z"/>
</svg>